<svg width="64" height="64" viewBox="0 0 64 64" xmlns="http://www.w3.org/2000/svg"><path d="M32 4c-8 0-14 6-14 16 0 6 2 10 2 16s-6 10-6 16c0 6 6 8 18 8s18-2 18-8c0-6-6-10-6-16s2-10 2-16c0-10-6-16-14-16z" fill="#111"/><path d="M26 24a2 2 0 1 1 4 0 2 2 0 0 1-4 0zm10 0a2 2 0 1 1 4 0 2 2 0 0 1-4 0z" fill="#fff"/><path d="M32 32c-6 0-10 8-10 16h20c0-8-4-16-10-16z" fill="#fff"/><path d="M32 36l2 4h-4l2-4z" fill="#F59E0B"/><path d="M16 48c-4 4-2 8 4 8h4c-2-4 0-8-8-8zm32 0c4 4 2 8-4 8h-4c2-4 0-8 8-8z" fill="#F59E0B"/></svg>